<svg xmlns="http://www.w3.org/2000/svg" viewBox="0 0 400 400" role="img" aria-label="bookworm">
  <rect width="400" height="400" fill="#F1EADB"/>
  <rect x="0" y="0" width="400" height="8" fill="#C98A2B"/>
  <rect x="104" y="346" width="192" height="6" fill="#DCD2BE"/>
  
    <path d="M200 92 q17 22 17 36 a17 17 0 0 1 -34 0 q0 -14 17 -36 Z" fill="#C98A2B"/>
    <path d="M200 108 q8 12 8 20 a8 8 0 0 1 -16 0 q0 -8 8 -20 Z" fill="#F6F1E7"/>
    <path d="M200 128 v14" stroke="#1C1A17" stroke-width="4"/>
    <rect x="126" y="150" width="148" height="188" fill="#6E7A62"/>
    <g fill="#1C1A17">
      <circle cx="177" cy="232" r="6"/>
      <circle cx="223" cy="232" r="6"/>
    </g>
    <path d="M182 252 q18 15 36 0" stroke="#1C1A17" stroke-width="5" fill="none"/>
  <g transform="translate(200 314)">
        <path d="M-52 -16 h48 v36 h-48 Z" fill="#F6F1E7"/>
        <path d="M4 -16 h48 v36 H4 Z" fill="#DCD2BE"/>
        <path d="M0 -20 v44" stroke="#1C1A17" stroke-width="5"/>
      </g>
</svg>
