<svg xmlns="http://www.w3.org/2000/svg" viewBox="0 0 400 400" role="img" aria-label="chai-behen placeholder illustration">
  <defs>
    <linearGradient id="bg-chai-behen" x1="0" y1="0" x2="1" y2="1">
      <stop offset="0" stop-color="#F1E8D7"/>
      <stop offset="1" stop-color="#F4ECDD"/>
    </linearGradient>
  </defs>
  <rect width="400" height="400" fill="url(#bg-chai-behen)"/>
  <ellipse cx="200" cy="352" rx="96" ry="16" fill="#8B9A7B" opacity=".18"/>
  
    <!-- flame -->
    <g>
      <ellipse cx="200" cy="120" rx="26" ry="34" fill="#E8A13A" opacity=".22"/>
      <path d="M200 92 q17 22 17 36 a17 17 0 0 1 -34 0 q0 -14 17 -36 Z" fill="#E8A13A"/>
      <path d="M200 108 q8 12 8 20 a8 8 0 0 1 -16 0 q0 -8 8 -20 Z" fill="#F4ECDD" opacity=".85"/>
    </g>
    <!-- wick -->
    <path d="M200 128 v14" stroke="#3B322C" stroke-width="4" stroke-linecap="round"/>
    <!-- body -->
    <path d="M136 150 h128 a10 10 0 0 1 10 10 v168 a10 10 0 0 1 -10 10 h-128
             a10 10 0 0 1 -10 -10 v-168 a10 10 0 0 1 10 -10 Z" fill="#B08A4F"/>
    <!-- melt highlight -->
    <path d="M136 150 h128 a10 10 0 0 1 10 10 v12 q-32 12 -74 12 t-74 -12 v-12
             a10 10 0 0 1 10 -10 Z" fill="#fff" opacity=".18"/>
    <!-- face -->
    <g fill="#3B322C">
      <circle cx="177" cy="232" r="6"/>
      <circle cx="223" cy="232" r="6"/>
    </g>
    <path d="M182 252 q18 15 36 0" stroke="#3B322C" stroke-width="5" fill="none" stroke-linecap="round"/>
  <g transform="translate(272 300)">
        <path d="M-26 -14 h46 v22 a16 16 0 0 1 -16 16 h-14 a16 16 0 0 1 -16 -16 Z" fill="#fff" opacity=".95"/>
        <path d="M20 -6 a13 13 0 0 1 0 20" stroke="#fff" stroke-width="5" fill="none" opacity=".95"/>
        <path d="M-14 -24 q6 -10 0 -18 M0 -24 q6 -10 0 -18" stroke="#F4ECDD" stroke-width="4"
              fill="none" opacity=".8" stroke-linecap="round"/>
      </g>
</svg>
