<svg xmlns="http://www.w3.org/2000/svg" viewBox="0 0 400 400" role="img" aria-label="protector">
  <rect width="400" height="400" fill="#F1EADB"/>
  <rect x="0" y="0" width="400" height="8" fill="#C98A2B"/>
  <rect x="104" y="346" width="192" height="6" fill="#DCD2BE"/>
  
    <path d="M200 92 q17 22 17 36 a17 17 0 0 1 -34 0 q0 -14 17 -36 Z" fill="#C98A2B"/>
    <path d="M200 108 q8 12 8 20 a8 8 0 0 1 -16 0 q0 -8 8 -20 Z" fill="#F6F1E7"/>
    <path d="M200 128 v14" stroke="#1C1A17" stroke-width="4"/>
    <rect x="126" y="150" width="148" height="188" fill="#7A5A46"/>
    <g fill="#1C1A17">
      <circle cx="177" cy="232" r="6"/>
      <circle cx="223" cy="232" r="6"/>
    </g>
    <path d="M182 252 q18 15 36 0" stroke="#1C1A17" stroke-width="5" fill="none"/>
  <g transform="translate(200 300)">
        <path d="M0 -34 L34 -20 V6 Q34 32 0 44 Q-34 32 -34 6 V-20 Z" fill="#DCD2BE"/>
        <path d="M0 -18 L16 -10 V6 Q16 20 0 26 Q-16 20 -16 6 V-10 Z" fill="#F6F1E7"/>
      </g>
</svg>
